:FULLY-SPECIFIED
:DEGREES
67
root -2.84274 16.395 -36.1574 3.81121 0.578891 -2.7145
lfemur -23.2303 6.20278 -8.68991
ltibia 47.0226
lfoot -22.9324 0.461894
ltoes -9.16313
rfemur -23.2503 -6.80621 14.2611
rtibia 49.156
rfoot -26.7138 1.72155
rtoes -7.88035
lowerback 7.32432 1.96484 -1.73637
upperback -3.84292 2.54611 1.2596
thorax -8.30759 1.37998 1.93735
lowerneck -3.10581 -3.86672 -6.56597
upperneck 6.4549 -5.22225 6.04339
head 3.03387 -2.57534 2.9749
lclavicle 4.00202e-14 3.97569e-16
lhumerus -26.8665 -1.7215 88.6383
lradius 24.238
lwrist -31.3918
lhand -28.3081 30.0664
lfingers 7.12502
lthumb -1.68344 60.0395
rclavicle 4.00202e-14 3.97569e-16
rhumerus -32.6631 1.61532 -79.4428
rradius 29.9347
rwrist 3.43504
rhand -20.0516 -26.777
rfingers 7.12502
rthumb 6.29002 -56.6636
68
root -2.84507 16.393 -36.1559 3.80788 0.577867 -2.70801
lfemur -23.2393 6.21416 -8.68827
ltibia 47.0598
lfoot -22.9517 0.471523
ltoes -9.18428
rfemur -23.27 -6.81719 14.2607
rtibia 49.1959
rfoot -26.7463 1.73279
rtoes -7.78737
lowerback 7.31761 1.985 -1.74644
upperback -3.82576 2.57136 1.25077
thorax -8.28648 1.39227 1.9304
lowerneck -3.13721 -3.88218 -6.58691
upperneck 6.45242 -5.24311 6.08729
head 3.04322 -2.58443 2.99278
lclavicle -4.68309e-15 4.17448e-15
lhumerus -26.8278 -1.80963 88.6656
lradius 24.2619
lwrist -31.3685
lhand -28.336 30.1361
lfingers 7.12502
lthumb -1.71046 60.109
rclavicle -4.68309e-15 4.17448e-15
rhumerus -32.633 1.55182 -79.4237
rradius 29.9218
rwrist 3.43485
rhand -19.9986 -26.7731
rfingers 7.12502
rthumb 6.34121 -56.6582
69
root -2.84663 16.3908 -36.1543 3.81966 0.598211 -2.71808
lfemur -23.2729 6.20081 -8.67313
ltibia 47.0988
lfoot -22.9664 0.477541
ltoes -9.13336
rfemur -23.2929 -6.8442 14.2781
rtibia 49.2402
rfoot -26.7902 1.70581
rtoes -7.84516
lowerback 7.31044 1.96327 -1.75006
upperback -3.8459 2.54311 1.26456
thorax -8.30348 1.37947 1.95111
lowerneck -3.10199 -3.86596 -6.61101
upperneck 6.4873 -5.22373 6.09373
head 3.04832 -2.57582 3.00103
lclavicle 2.56518e-14 6.26172e-15
lhumerus -26.8852 -1.76244 88.6545
lradius 24.3072
lwrist -31.3851
lhand -28.3215 30.082
lfingers 7.12502
lthumb -1.69642 60.055
rclavicle 2.56518e-14 6.26172e-15
rhumerus -32.6543 1.60432 -79.4457
rradius 29.925
rwrist 3.43376
rhand -19.9738 -26.7672
rfingers 7.12502
rthumb 6.36514 -56.6516
70
root -2.84897 16.3888 -36.1539 3.83556 0.618547 -2.73321
lfemur -23.3182 6.20844 -8.64758
ltibia 47.1342
lfoot -22.9913 0.465516
ltoes -9.14345
rfemur -23.3276 -6.86211 14.3051
rtibia 49.2849
rfoot -26.7925 1.70201
rtoes -7.84917
lowerback 7.3199 1.96661 -1.73974
upperback -3.86336 2.54849 1.26144
thorax -8.32751 1.38176 1.94066
lowerneck -3.07492 -3.87855 -6.59491
upperneck 6.49477 -5.24197 6.07395
head 3.04559 -2.58549 2.99065
lclavicle -1.56978e-14 -7.15625e-15
lhumerus -26.9017 -1.84043 88.6725
lradius 24.3497
lwrist -31.3087
lhand -28.2403 30.3256
lfingers 7.12502
lthumb -1.61804 60.2992
rclavicle -1.56978e-14 -7.15625e-15
rhumerus -32.6849 1.57252 -79.4526
rradius 29.948
rwrist 3.40934
rhand -19.9936 -26.8543
rfingers 7.12502
rthumb 6.34596 -56.7393
71
root -2.85047 16.3868 -36.1516 3.86289 0.646531 -2.68539
lfemur -23.3583 6.19342 -8.69643
ltibia 47.1755
lfoot -23.0221 0.470665
ltoes -9.1386
rfemur -23.3657 -6.90927 14.2588
rtibia 49.3374
rfoot -26.826 1.67801
rtoes -7.97973
lowerback 7.26742 1.96728 -1.7807
upperback -3.85698 2.54386 1.23915
thorax -8.29056 1.3808 1.94248
lowerneck -3.10181 -3.88749 -6.56841
upperneck 6.51115 -5.25338 6.05744
head 3.05535 -2.59056 2.97911
lclavicle -2.26731e-14 -1.11319e-14
lhumerus -26.8936 -1.87349 88.6724
lradius 24.3731
lwrist -31.3355
lhand -28.3038 30.1998
lfingers 7.12502
lthumb -1.67933 60.1729
rclavicle -2.26731e-14 -1.11319e-14
rhumerus -32.6874 1.57612 -79.4673
rradius 29.971
rwrist 3.37423
rhand -20.1239 -26.7578
rfingers 7.12502
rthumb 6.22018 -56.6465
72
root -2.85235 16.3846 -36.1512 3.88866 0.652223 -2.68289
lfemur -23.4161 6.23019 -8.69672
ltibia 47.2216
lfoot -23.039 0.493406
ltoes -9.31759
rfemur -23.4152 -6.91747 14.2636
rtibia 49.3869
rfoot -26.8533 1.727
rtoes -7.81134
lowerback 7.26789 1.96453 -1.79877
upperback -3.87496 2.53871 1.24361
thorax -8.31115 1.37977 1.95782
lowerneck -3.0988 -3.8856 -6.59248
upperneck 6.53971 -5.25146 6.0676
head 3.06584 -2.59 2.98742
lclavicle -4.12998e-14 -1.89839e-14
lhumerus -26.906 -1.87111 88.6739
lradius 24.3868
lwrist -31.2872
lhand -28.3234 30.2795
lfingers 7.12502
lthumb -1.69828 60.2525
rclavicle -4.12998e-14 -1.89839e-14
rhumerus -32.711 1.60915 -79.4865
rradius 29.9995
rwrist 3.34538
rhand -20.0685 -26.8188
rfingers 7.12502
rthumb 6.27365 -56.7059
73
root -2.85421 16.3808 -36.1502 3.88751 0.668213 -2.70851
lfemur -23.4428 6.22649 -8.65637
ltibia 47.2763
lfoot -23.0664 0.453196
ltoes -9.2069
rfemur -23.4311 -6.94515 14.2944
rtibia 49.4355
rfoot -26.8804 1.75378
rtoes -7.78488
lowerback 7.26804 1.95975 -1.76839
upperback -3.88049 2.53559 1.24351
thorax -8.31554 1.37664 1.94102
lowerneck -3.08157 -3.8889 -6.58194
upperneck 6.56517 -5.25776 6.05817
head 3.07093 -2.59344 2.98218
lclavicle 1.14379e-15 -3.57812e-15
lhumerus -26.909 -1.88688 88.6672
lradius 24.4002
lwrist -31.2398
lhand -28.2827 30.4345
lfingers 7.12502
lthumb -1.65899 60.4078
rclavicle 1.14379e-15 -3.57812e-15
rhumerus -32.7239 1.62406 -79.5134
rradius 30.0107
rwrist 3.35285
rhand -20.0703 -26.7505
rfingers 7.12502
rthumb 6.27191 -56.6377
74
root -2.85665 16.3776 -36.1494 3.87989 0.656019 -2.75947
lfemur -23.4632 6.2586 -8.58582
ltibia 47.3306
lfoot -23.0857 0.470501
ltoes -9.3059
rfemur -23.4483 -6.92828 14.3625
rtibia 49.4781
rfoot -26.8987 1.70637
rtoes -7.88833
lowerback 7.2876 1.96897 -1.73779
upperback -3.87044 2.5525 1.26343
thorax -8.31651 1.38373 1.94196
lowerneck -3.13114 -3.89096 -6.60604
upperneck 6.59222 -5.25848 6.07373
head 3.09132 -2.5932 2.9916
lclavicle -3.94153e-15 -1.58034e-14
lhumerus -26.8835 -1.89881 88.6783
lradius 24.4117
lwrist -31.1947
lhand -28.2118 30.4101
lfingers 7.12502
lthumb -1.59042 60.3839
rclavicle -3.94153e-15 -1.58034e-14
rhumerus -32.6855 1.62875 -79.5162
rradius 30.004
rwrist 3.36784
rhand -20.0724 -26.6963
rfingers 7.12502
rthumb 6.26995 -56.5835
75
root -2.85896 16.3756 -36.1483 3.87799 0.637239 -2.76929
lfemur -23.4774 6.29321 -8.56311
ltibia 47.3839
lfoot -23.1262 0.434033
ltoes -9.25308
rfemur -23.468 -6.91985 14.3805
rtibia 49.5183
rfoot -26.9249 1.70869
rtoes -7.915
lowerback 7.29255 1.96506 -1.7664
upperback -3.86335 2.54577 1.28552
thorax -8.31395 1.38267 1.98235
lowerneck -3.17889 -3.88033 -6.61263
upperneck 6.63297 -5.24033 6.04278
head 3.11199 -2.5846 2.98247
lclavicle -2.05152e-14 -1.98785e-14
lhumerus -26.8652 -1.81605 88.6675
lradius 24.4173
lwrist -31.181
lhand -28.2668 30.3026
lfingers 7.12502
lthumb -1.64361 60.276
rclavicle -2.05152e-14 -1.98785e-14
rhumerus -32.6547 1.71049 -79.5381
rradius 30.0238
rwrist 3.34699
rhand -20.0554 -26.7362
rfingers 7.12502
rthumb 6.2863 -56.6229
76
root -2.86102 16.3739 -36.1471 3.88005 0.643618 -2.76091
lfemur -23.4991 6.31991 -8.56368
ltibia 47.4281
lfoot -23.1513 0.423946
ltoes -9.27474
rfemur -23.483 -6.94504 14.3755
rtibia 49.5569
rfoot -26.9473 1.73195
rtoes -7.9809
lowerback 7.29604 1.97218 -1.77247
upperback -3.86818 2.55384 1.27479
thorax -8.32138 1.38669 1.97303
lowerneck -3.15578 -3.89368 -6.60144
upperneck 6.63166 -5.25932 6.03084
head 3.10757 -2.59445 2.97561
lclavicle -1.52544e-14 -5.56597e-15
lhumerus -26.8559 -1.83301 88.6645
lradius 24.4087
lwrist -31.2046
lhand -28.2578 30.4639
lfingers 7.12502
lthumb -1.63489 60.4374
rclavicle -1.52544e-14 -5.56597e-15
rhumerus -32.6392 1.68574 -79.5533
rradius 30.0149
rwrist 3.3975
rhand -20.0345 -26.8348
rfingers 7.12502
rthumb 6.30651 -56.7209
77
root -2.86263 16.3713 -36.1462 3.87877 0.653752 -2.74883
lfemur -23.514 6.33057 -8.56854
ltibia 47.4773
lfoot -23.185 0.379699
ltoes -9.13445
rfemur -23.4881 -6.97997 14.3623
rtibia 49.5959
rfoot -26.987 1.75601
rtoes -7.95302
lowerback 7.29899 1.96558 -1.7882
upperback -3.8697 2.54312 1.27299
thorax -8.32487 1.3823 1.98143
lowerneck -3.14582 -3.88515 -6.59957
upperneck 6.63599 -5.24827 6.02519
head 3.10604 -2.58925 2.97394
lclavicle 9.17981e-15 1.53064e-14
lhumerus -26.8642 -1.80443 88.6541
lradius 24.4104
lwrist -31.2186
lhand -28.259 30.321
lfingers 7.12502
lthumb -1.6361 60.2944
rclavicle 9.17981e-15 1.53064e-14
rhumerus -32.6285 1.71042 -79.5703
rradius 30.0228
rwrist 3.4372
rhand -20.0375 -26.7938
rfingers 7.12502
rthumb 6.30362 -56.68
78
root -2.8643 16.3689 -36.145 3.86974 0.662705 -2.78308
lfemur -23.5291 6.36244 -8.5211
ltibia 47.5199
lfoot -23.2105 0.381021
ltoes -9.19281
rfemur -23.4905 -7.01499 14.4041
rtibia 49.6359
rfoot -27.0171 1.77379
rtoes -7.96116
lowerback 7.30343 1.96414 -1.75203
upperback -3.85428 2.54516 1.27625
thorax -8.30926 1.38112 1.96436
lowerneck -3.19141 -3.88986 -6.57009
upperneck 6.65656 -5.25274 6.00147
head 3.11987 -2.59073 2.95942
lclavicle -6.47293e-15 -1.23246e-14
lhumerus -26.8052 -1.81731 88.6406
lradius 24.3773
lwrist -31.2273
lhand -28.2674 30.3468
lfingers 7.12502
lthumb -1.6442 60.3202
rclavicle -6.47293e-15 -1.23246e-14
rhumerus -32.5737 1.68412 -79.5845
rradius 30.0188
rwrist 3.42241
rhand -20.0182 -26.781
rfingers 7.12502
rthumb 6.32229 -56.6666
79
root -2.86625 16.366 -36.1442 3.87262 0.681793 -2.78644
lfemur -23.5656 6.36751 -8.50744
ltibia 47.5753
lfoot -23.2273 0.339574
ltoes -9.16647
rfemur -23.5098 -7.07456 14.4129
rtibia 49.6761
rfoot -27.0461 1.7878
rtoes -8.05547
lowerback 7.29755 1.95755 -1.7584
upperback -3.8645 2.5362 1.28152
thorax -8.31699 1.37744 1.97487
lowerneck -3.11747 -3.88073 -6.5769
upperneck 6.63166 -5.24357 6.00466
head 3.09701 -2.58737 2.96307
lclavicle -3.30037e-14 -9.34288e-15
lhumerus -26.852 -1.78903 88.637
lradius 24.3979
lwrist -31.2697
lhand -28.1834 30.4237
lfingers 7.12502
lthumb -1.56302 60.3977
rclavicle -3.30037e-14 -9.34288e-15
rhumerus -32.5985 1.70245 -79.6006
rradius 30.0761
rwrist 3.42419
rhand -19.9578 -26.8722
rfingers 7.12502
rthumb 6.38055 -56.7561
80
root -2.86787 16.3638 -36.1429 3.86631 0.689944 -2.77606
lfemur -23.5776 6.36921 -8.51293
ltibia 47.6221
lfoot -23.2622 0.373327
ltoes -9.2734
rfemur -23.5155 -7.12462 14.4015
rtibia 49.7164
rfoot -27.0683 1.84801
rtoes -7.96814
lowerback 7.30765 1.9522 -1.76509
upperback -3.86218 2.52755 1.27402
thorax -8.31988 1.37333 1.97171
lowerneck -3.15019 -3.89009 -6.55725
upperneck 6.66707 -5.25541 5.98619
head 3.11465 -2.59284 2.95212
lclavicle -8.9127e-15 1.2424e-14
lhumerus -26.8343 -1.74942 88.6177
lradius 24.3791
lwrist -31.3264
lhand -28.2398 30.2907
lfingers 7.12502
lthumb -1.61755 60.2643
rclavicle -8.9127e-15 1.2424e-14
rhumerus -32.5774 1.69566 -79.6203
rradius 30.0794
rwrist 3.44863
rhand -19.9314 -26.9238
rfingers 7.12502
rthumb 6.40604 -56.8069
